<svg width="75" height="104" viewBox="0 0 75 104" fill="none" xmlns="http://www.w3.org/2000/svg">
<rect width="37" height="62" fill="#AAFF00"/>
<rect width="37" height="62" transform="matrix(-1 0 0 1 48 11)" fill="#FFAA00"/>
<rect x="38" y="42" width="37" height="62" fill="#00AAFF"/>
<rect x="29" y="31" width="37" height="62" fill="#AA00FF"/>
<rect x="19" y="23" width="37" height="62" fill="#FF00AA"/>
<path d="M38.575 63H27.5V45.5H30.925V59.95H38.575V63ZM49.8725 62.275C49.3391 62.6583 48.6558 62.9333 47.8225 63.1C47.0058 63.2667 46.1641 63.35 45.2975 63.35C44.2475 63.35 43.2475 63.1917 42.2975 62.875C41.3641 62.5417 40.5391 62.0167 39.8225 61.3C39.1058 60.5667 38.5308 59.625 38.0975 58.475C37.6808 57.3083 37.4725 55.9 37.4725 54.25C37.4725 52.5333 37.7058 51.1 38.1725 49.95C38.6558 48.7833 39.2725 47.85 40.0225 47.15C40.7891 46.4333 41.6391 45.925 42.5725 45.625C43.5058 45.3083 44.4391 45.15 45.3725 45.15C46.3725 45.15 47.2141 45.2167 47.8975 45.35C48.5975 45.4833 49.1725 45.6417 49.6225 45.825L48.9475 48.725C48.5641 48.5417 48.1058 48.4083 47.5725 48.325C47.0558 48.2417 46.4225 48.2 45.6725 48.2C44.2891 48.2 43.1725 48.6917 42.3225 49.675C41.4891 50.6583 41.0725 52.1833 41.0725 54.25C41.0725 55.15 41.1725 55.975 41.3725 56.725C41.5725 57.4583 41.8725 58.0917 42.2725 58.625C42.6891 59.1417 43.1975 59.55 43.7975 59.85C44.4141 60.1333 45.1225 60.275 45.9225 60.275C46.6725 60.275 47.3058 60.2 47.8225 60.05C48.3391 59.9 48.7891 59.7083 49.1725 59.475L49.8725 62.275Z" fill="black"/>
</svg>
