<svg width="157" height="116" viewBox="0 0 157 116" fill="none" xmlns="http://www.w3.org/2000/svg">
<path d="M150.157 53.6183C153.203 55.5884 153.203 60.0446 150.157 62.0148L108.378 89.0398C105.051 91.1918 100.662 88.8038 100.662 84.8416L100.662 30.7915C100.662 26.8293 105.051 24.4412 108.378 26.5932L150.157 53.6183Z" fill="#00AAFF"/>
<path d="M139.157 53.6183C142.203 55.5884 142.203 60.0446 139.157 62.0148L97.3776 89.0398C94.0507 91.1918 89.6619 88.8038 89.6619 84.8416L89.6619 30.7915C89.6619 26.8293 94.0507 24.4412 97.3776 26.5932L139.157 53.6183Z" fill="#AA00FF"/>
<path d="M129.157 53.6183C132.203 55.5884 132.203 60.0446 129.157 62.0148L87.3776 89.0398C84.0507 91.1918 79.6619 88.8038 79.6619 84.8416L79.6619 30.7915C79.6619 26.8293 84.0507 24.4412 87.3776 26.5932L129.157 53.6183Z" fill="#FF00AA"/>
<path d="M118.157 53.6183C121.203 55.5884 121.203 60.0446 118.157 62.0148L76.3776 89.0398C73.0507 91.1918 68.6619 88.8038 68.6619 84.8416L68.6619 30.7915C68.6619 26.8293 73.0507 24.4412 76.3776 26.5932L118.157 53.6183Z" fill="#FFAA00"/>
<path d="M107.654 53.6692C110.968 55.5974 110.968 60.3843 107.654 62.3125L36.2849 103.84C32.9516 105.779 28.7703 103.375 28.7703 99.5182L28.7703 16.4635C28.7703 12.6069 32.9516 10.2023 36.2849 12.1418L107.654 53.6692Z" fill="#AAFF00"/>
</svg>